Coordinates
version=1
nRows=14
nColumns=40
inDegrees=yes

Units are S.I. units (second, meters, Newtons, ...)
Angles are in degrees.

endheader
time	pelvis_tilt	pelvis_list	pelvis_rotation	pelvis_tx	pelvis_ty	pelvis_tz	hip_flexion_r	hip_adduction_r	hip_rotation_r	knee_angle_r	knee_angle_r_beta	ankle_angle_r	subtalar_angle_r	mtp_angle_r	hip_flexion_l	hip_adduction_l	hip_rotation_l	knee_angle_l	knee_angle_l_beta	ankle_angle_l	subtalar_angle_l	mtp_angle_l	lumbar_extension	lumbar_bending	lumbar_rotation	arm_flex_r	arm_add_r	arm_rot_r	elbow_flex_r	pro_sup_r	wrist_flex_r	wrist_dev_r	arm_flex_l	arm_add_l	arm_rot_l	elbow_flex_l	pro_sup_l	wrist_flex_l	wrist_dev_l
     56.66000000	     -5.45385552	     -4.31365781	      1.09136332	      0.97752358	      0.92876126	      0.40686315	     36.33818449	     -5.52541956	     -5.25981391	     72.57739481	     72.57739481	      2.12624523	    -17.54050566	      3.49980877	     20.52615226	     -5.36082587	     -5.72490021	     22.45293887	     22.45293887	     10.11946620	    -10.39772981	     -3.62300696	    -11.77544717	      2.84927439	      2.49872283	      7.98191603	    -13.71760683	     -3.52590112	     68.65566641	     44.14666084	      0.00000000	      0.00000000	     16.73691944	    -14.47767058	      9.14146395	     38.48166175	     44.68148187	      0.00000000	      0.00000000
     56.67200000	     -5.38826040	     -4.29389397	      0.74008315	      0.97648101	      0.92962727	      0.40670546	     37.47547743	     -5.36624163	     -4.81245685	     71.30414616	     71.30414616	      1.95731403	    -17.22301853	      2.92207305	     19.49930853	     -5.30029505	     -5.73439359	     21.81216663	     21.81216663	     10.21207005	    -10.94505101	     -3.89622231	    -11.90725111	      2.94600136	      2.77131085	      6.92839167	    -13.64661754	     -4.03205207	     63.00573404	     44.41274579	      0.00000000	      0.00000000	     18.63095310	    -14.90754109	      9.13643764	     39.37784168	     44.79218470	      0.00000000	      0.00000000
     56.68400000	     -5.31457491	     -4.26868169	      0.39645934	      0.97545491	      0.93031390	      0.40662860	     38.48002269	     -5.21790215	     -4.43237691	     69.85675004	     69.85675004	      1.70255930	    -16.90826720	      2.15476443	     18.53979788	     -5.35135540	     -6.20253894	     21.32695929	     21.32695929	     10.46242521	    -10.67227663	     -4.51712327	    -12.07290328	      3.01145850	      2.88719947	      6.23559430	    -13.53084618	     -4.51822401	     56.90319818	     44.69550435	      0.00000000	      0.00000000	     20.14357882	    -15.57167805	      9.09386067	     41.18010198	     44.91346663	      0.00000000	      0.00000000
     56.69600000	     -5.17862197	     -4.18525035	      0.04744496	      0.97450637	      0.93099798	      0.40650352	     39.30834603	     -5.10819491	     -4.04608710	     68.25049904	     68.25049904	      1.63146526	    -16.46504359	      2.06862266	     17.48624166	     -5.29459800	     -6.57635742	     20.80154826	     20.80154826	     10.81667444	    -10.50934281	     -4.66989666	    -12.41364929	      3.04632893	      3.65441368	      4.39999728	    -14.09087908	     -4.51925682	     53.44854066	     44.82430985	      0.00000000	      0.00000000	     22.07717429	    -15.70801050	      8.84830716	     42.81670339	     44.99689286	      0.00000000	      0.00000000
     56.70800000	     -5.10620338	     -4.09059189	     -0.25759418	      0.97355872	      0.93145849	      0.40643137	     40.03950829	     -5.05107372	     -3.80522989	     66.39137524	     66.39137524	      1.50348429	    -16.10351881	      1.78417446	     16.57402079	     -5.24380944	     -7.04913263	     20.36889299	     20.36889299	     11.08965775	    -10.24261208	     -5.13798990	    -12.60402716	      3.02577614	      3.97387508	      3.86662490	    -14.05283259	     -4.99871031	     47.22140894	     45.09244085	      0.00000000	      0.00000000	     23.67049203	    -16.19761964	      8.77759343	     44.53896701	     45.07884524	      0.00000000	      0.00000000
     56.72000000	     -5.04273369	     -4.07915405	     -0.52867466	      0.97274522	      0.93194956	      0.40634361	     40.56951352	     -4.97039384	     -3.77248085	     64.17403157	     64.17403157	      1.36451804	    -15.56499486	      1.78537655	     15.55967279	     -5.22412722	     -7.33084349	     19.71779315	     19.71779315	     11.42436834	     -9.98092300	     -5.36136850	    -12.79741128	      3.17360377	      4.25114800	      2.69749433	    -14.28236176	     -5.24059788	     43.28915306	     45.25591457	      0.00000000	      0.00000000	     25.16005890	    -16.45273550	      8.58275025	     46.09858181	     45.14997325	      0.00000000	      0.00000000
     56.73200000	     -5.10787712	     -3.91721553	     -0.81263655	      0.97185355	      0.93198621	      0.40637762	     41.12303756	     -5.00054803	     -3.70843633	     61.70655195	     61.70655195	      1.01823605	    -15.23569910	      0.89466990	     14.79285057	     -5.05853959	     -7.65500264	     19.22746226	     19.22746226	     11.47949658	     -9.98449234	     -6.16190588	    -12.75939388	      3.10762531	      3.07081068	      4.80267900	    -13.36971169	     -7.28601566	     33.29884232	     45.81267774	      0.00000000	      0.00000000	     25.32903211	    -18.14001710	      7.93900999	     48.98772840	     45.38037233	      0.00000000	      0.00000000
     56.74400000	     -5.13281526	     -3.78446031	     -1.04186721	      0.97118180	      0.93199322	      0.40637378	     41.41910347	     -5.06166450	     -3.86388330	     58.92119741	     58.92119741	      1.02827308	    -14.63026823	      1.00691937	     13.97509510	     -4.91416952	     -7.95152309	     18.75559291	     18.75559291	     11.85620710	     -9.70165097	     -6.36986269	    -12.88331225	      3.12013357	      3.58984505	      2.94617644	    -13.83017884	     -7.48099956	     31.17013099	     45.90601456	      0.00000000	      0.00000000	     26.81838624	    -18.21982442	      7.54558892	     50.46757789	     45.46783760	      0.00000000	      0.00000000
     56.75600000	     -5.32616396	     -3.66274726	     -1.20552023	      0.97051874	      0.93163828	      0.40638683	     41.70269959	     -5.16111125	     -4.24555252	     55.80824960	     55.80824960	      1.05611491	    -13.99732769	      1.22374906	     13.39587036	     -4.76995559	     -8.18465125	     18.35775758	     18.35775758	     12.18584987	     -9.51616148	     -6.53026783	    -12.77574787	      3.22118852	      3.49851863	      1.25686303	    -14.15076631	     -7.60624378	     29.68615211	     45.96723442	      0.00000000	      0.00000000	     28.08048503	    -18.76561876	      7.20419629	     51.44227016	     45.52807688	      0.00000000	      0.00000000
     56.76800000	     -5.35175482	     -3.42940827	     -1.44878044	      0.97021712	      0.93149235	      0.40656096	     41.50081227	     -5.29040241	     -4.64305073	     52.16274253	     52.16274253	      0.51154453	    -13.50119617	     -0.55650660	     12.45524423	     -4.53041337	     -8.67329072	     17.67104314	     17.67104314	     12.19452391	     -9.15005487	     -7.55005574	    -12.82250556	      3.06230841	      3.28768027	      1.83841076	    -14.06921790	     -9.54110568	     22.64512244	     46.49026510	      0.00000000	      0.00000000	     28.29778667	    -19.48068288	      6.48500145	     54.97803543	     45.75195885	      0.00000000	      0.00000000
     56.78000000	     -5.52231680	     -3.28162976	     -1.58038230	      0.97003430	      0.93100843	      0.40675234	     41.25895050	     -5.36593551	     -5.29768490	     48.30891367	     48.30891367	      0.67070057	    -12.56261907	     -0.27750947	     11.76681913	     -4.34229666	     -8.84486260	     17.16499788	     17.16499788	     12.52009023	     -8.95674998	     -7.65212248	    -12.68621181	      3.08800918	      3.42111258	     -0.05960682	    -14.49296307	     -9.76102089	     21.60217877	     46.54650222	      0.00000000	      0.00000000	     29.39658099	    -19.67985812	      6.09484036	     56.14123169	     45.81966110	      0.00000000	      0.00000000
     56.79200000	     -5.58648164	     -2.95677470	     -1.76523551	      0.97012068	      0.93047040	      0.40705824	     40.72598101	     -5.56222196	     -5.97700545	     44.22819664	     44.22819664	      0.84259910	    -11.28030250	     -0.33862688	     10.88502522	     -3.98186303	     -9.22624244	     16.55199149	     16.55199149	     12.79714118	     -8.55356573	     -7.93835345	    -12.75290620	      2.88037931	      3.97438696	     -2.13437301	    -14.83682706	    -10.19277205	     20.23931359	     46.64814161	      0.00000000	      0.00000000	     30.45351210	    -19.61820676	      5.57586556	     58.28380436	     45.92244675	      0.00000000	      0.00000000
     56.80400000	     -5.72763895	     -2.71987417	     -1.85372543	      0.97051090	      0.92966630	      0.40748144	     39.94390311	     -5.61636794	     -6.84772124	     39.74435581	     39.74435581	      0.63916114	    -10.14116620	     -1.27206105	     10.10822396	     -3.72444091	     -9.51862602	     15.98119166	     15.98119166	     12.91087841	     -8.19334530	     -8.71117007	    -12.66127430	      2.78331521	      3.58430349	     -3.53844961	    -14.96506669	    -12.13024700	     19.05680472	     46.97282112	      0.00000000	      0.00000000	     30.32975865	    -20.29681102	      4.40025039	     61.61390442	     46.17193414	      0.00000000	      0.00000000
     56.81600000	     -5.82130376	     -2.40624666	     -1.91530360	      0.97122679	      0.92874835	      0.40801677	     38.98846611	     -5.71132263	     -7.82679641	     35.31084322	     35.31084322	      1.01069879	     -8.40718637	     -0.69494516	      9.24433249	     -3.37300642	     -9.78592435	     15.39682466	     15.39682466	     13.21666760	     -7.74651407	     -8.94623066	    -12.53578316	      2.57223651	      3.86914783	     -5.62852613	    -15.18389751	    -12.61040275	     18.30576879	     47.05904666	      0.00000000	      0.00000000	     31.16354599	    -20.27873063	      3.99038869	     63.25483809	     46.26488764	      0.00000000	      0.00000000
